<?xml version="1.0" standalone="no"?>
<!DOCTYPE svg PUBLIC "-//W3C//DTD SVG 20010904//EN"
 "http://www.w3.org/TR/2001/REC-SVG-20010904/DTD/svg10.dtd">
<svg version="1.0" xmlns="http://www.w3.org/2000/svg"
 width="1024.000000pt" height="1024.000000pt" viewBox="0 0 1024.000000 1024.000000"
 preserveAspectRatio="xMidYMid meet">

<g transform="translate(0.000000,1024.000000) scale(0.100000,-0.100000)"
fill="#000000" stroke="none">
<path d="M6988 8400 c-158 -40 -281 -112 -393 -232 -85 -90 -128 -160 -168
-275 -26 -76 -31 -106 -35 -218 -4 -111 -1 -144 17 -215 79 -313 317 -533 638
-590 86 -15 243 -8 328 14 212 58 399 208 495 401 62 123 79 204 76 370 -2
129 -4 147 -34 229 -43 122 -102 217 -187 302 -101 101 -194 157 -340 205 -92
31 -295 35 -397 9z m244 -401 c79 -17 128 -41 183 -92 193 -173 150 -482 -83
-601 -61 -32 -164 -47 -224 -35 -203 43 -338 227 -308 416 12 75 63 174 111
218 64 57 165 101 241 104 15 1 51 -4 80 -10z"/>
<path d="M6130 7885 c-72 -26 -570 -199 -1193 -414 l-408 -141 -47 16 c-125
42 -308 25 -440 -41 -244 -123 -370 -426 -282 -680 52 -152 149 -263 291 -334
265 -133 609 -35 755 215 14 24 29 44 33 44 4 0 129 25 277 56 148 31 373 78
499 104 127 26 377 78 556 116 l327 67 -62 71 c-131 150 -205 295 -241 471
-21 104 -22 308 -1 399 9 37 16 69 16 72 0 7 -13 4 -80 -21z"/>
<path d="M7970 7043 c0 -19 -162 -177 -230 -225 -108 -75 -229 -130 -350 -159
-31 -7 -117 -13 -197 -14 -79 0 -143 -2 -143 -5 0 -4 164 -539 262 -852 l30
-97 39 20 c59 30 213 67 309 74 157 13 366 -25 509 -91 87 -40 224 -129 265
-173 17 -17 33 -31 37 -31 3 0 -2 24 -11 53 -10 28 -100 293 -200 587 -100
294 -210 620 -245 723 -59 176 -75 216 -75 190z"/>
<path d="M3308 6098 c-10 -8 -22 -49 -32 -108 -9 -52 -18 -106 -21 -120 -2
-13 -7 -42 -10 -65 -7 -48 -73 -438 -81 -477 l-6 -28 -359 0 -360 0 5 33 c46
271 116 742 112 753 -8 20 -398 21 -418 1 -13 -13 -44 -164 -116 -572 l-37
-210 -336 -3 c-253 -2 -339 -5 -347 -15 -10 -13 -30 -168 -39 -304 -4 -59 -2
-87 7 -98 11 -13 59 -15 330 -15 l317 0 -13 -72 c-7 -40 -16 -84 -19 -98 -3
-14 -8 -47 -11 -75 -4 -27 -8 -53 -10 -56 -2 -3 -8 -34 -14 -70 -9 -59 -12
-76 -24 -141 -2 -13 -12 -66 -21 -118 -11 -59 -24 -100 -34 -108 -13 -11 -73
-12 -308 -6 -354 8 -335 14 -352 -108 -19 -126 -22 -150 -30 -194 -9 -49 -5
-84 13 -102 10 -10 86 -15 314 -19 166 -3 302 -9 302 -13 0 -4 -4 -29 -9 -56
-5 -27 -12 -69 -16 -94 -15 -109 -81 -504 -100 -596 -13 -60 2 -64 219 -64
174 0 194 2 210 18 11 13 28 86 51 223 19 112 37 218 41 234 3 17 18 100 33
185 l27 155 362 3 362 2 -5 -27 c-43 -246 -106 -678 -108 -733 l-2 -55 212 -3
213 -2 5 22 c3 13 23 131 45 263 22 132 46 276 54 320 22 118 24 137 25 173
l1 32 305 0 305 0 10 23 c5 12 19 98 31 191 l22 169 -23 19 c-20 16 -46 18
-264 19 -132 1 -253 2 -268 2 -17 -1 -28 4 -28 12 0 8 14 101 31 207 17 106
32 207 35 223 2 17 6 41 9 55 3 14 12 68 20 120 9 52 18 107 21 123 l6 27 286
-6 c240 -6 289 -5 298 7 11 14 54 298 54 355 0 60 5 59 -292 64 -266 5 -273 6
-269 25 9 53 74 466 93 592 17 112 19 148 10 168 l-12 25 -193 0 c-139 0 -198
-3 -209 -12z m-223 -1240 c-3 -13 -9 -50 -14 -83 -6 -33 -12 -71 -15 -85 -3
-13 -8 -42 -11 -65 -3 -22 -13 -78 -21 -125 -8 -47 -24 -139 -34 -205 -11 -66
-23 -132 -26 -147 l-6 -28 -354 0 -354 0 0 24 c0 13 7 61 16 107 9 46 17 93
19 104 19 125 76 476 81 498 l6 27 359 0 359 0 -5 -22z"/>
<path d="M7665 5539 c-135 -20 -257 -71 -365 -153 -36 -28 -71 -56 -79 -63 -7
-8 -102 -89 -210 -181 -108 -91 -198 -169 -201 -172 -5 -7 -258 -223 -326
-280 -51 -42 -225 -191 -240 -205 -6 -5 -37 -32 -70 -60 -32 -27 -79 -68 -104
-91 -25 -22 -119 -103 -210 -179 -91 -77 -167 -142 -170 -145 -3 -3 -48 -41
-100 -85 -222 -186 -323 -331 -390 -555 -21 -68 -23 -101 -27 -367 l-5 -293
1101 0 1101 0 0 271 0 272 509 504 c281 277 525 525 544 551 351 480 54 1148
-548 1231 -86 12 -124 12 -210 0z m229 -470 c73 -27 148 -96 183 -167 24 -49
28 -69 28 -142 0 -73 -4 -93 -28 -142 -36 -74 -119 -150 -189 -174 -227 -78
-463 106 -446 346 16 214 246 357 452 279z"/>
<path d="M4488 2476 c-64 -17 -121 -57 -162 -114 -59 -81 -67 -122 -64 -342
l3 -195 1995 0 1995 0 3 202 c2 186 1 206 -19 259 -30 79 -104 153 -182 182
l-58 22 -1732 -1 c-1363 0 -1742 -3 -1779 -13z"/>
</g>
</svg>
